<svg width="24" height="24" viewBox="0 0 24 24" fill="none" xmlns="http://www.w3.org/2000/svg">
<path d="M5.1 7.2002V7.7002H5.6H8.8C8.99489 7.7002 9.14612 7.74096 9.23025 7.79144C9.26812 7.81416 9.2826 7.83276 9.28798 7.84151C9.29175 7.84766 9.3 7.86249 9.3 7.9002C9.3 8.00729 9.26087 8.07444 9.21214 8.11912C9.15693 8.16973 9.07844 8.2002 9 8.2002H5.7H5.2V8.7002V12.1002C5.2 12.2499 5.15704 12.311 5.13395 12.3341C5.11085 12.3572 5.04975 12.4002 4.9 12.4002C4.79291 12.4002 4.72575 12.3611 4.68108 12.3123C4.63047 12.2571 4.6 12.1786 4.6 12.1002V8.8002V8.3002H4.1H0.8C0.650254 8.3002 0.589148 8.25724 0.566053 8.23414C0.542959 8.21105 0.5 8.14994 0.5 8.0002C0.5 7.8931 0.539128 7.82595 0.587862 7.78127C0.643071 7.73066 0.721556 7.7002 0.8 7.7002H4.1H4.6V7.2002V3.9002C4.6 3.77411 4.63284 3.68975 4.6625 3.6502C4.67507 3.63344 4.68702 3.62417 4.70014 3.61772C4.71344 3.61119 4.74304 3.6002 4.8 3.6002C4.90709 3.6002 4.97425 3.63932 5.01892 3.68806C5.06953 3.74327 5.1 3.82175 5.1 3.9002V7.2002ZM17.2 11.7002C17.4227 11.7002 17.7443 11.6761 18.0663 11.6454C17.9432 11.7547 17.8039 11.8703 17.6468 11.9901C16.7091 12.7051 15.1282 13.5755 12.5965 14.111L12.4775 14.1362L12.3834 14.2132C10.6621 15.6215 9.02442 18.0127 7.8001 19.9866C7.34123 20.7264 6.93302 21.4202 6.59747 21.9904C6.57401 22.0303 6.55091 22.0696 6.52817 22.1082C6.54887 22.0179 6.57178 21.923 6.5971 21.8233C6.97246 20.3461 7.85583 17.9066 9.74722 14.1238L9.74806 14.1221C12.2966 8.97594 15.7925 6.12126 18.6531 4.551C20.0853 3.76481 21.3601 3.29972 22.279 3.03177C22.7357 2.89862 23.1037 2.81434 23.3586 2.7636C23.3641 2.84929 23.3683 2.9486 23.3704 3.05952C23.3778 3.45448 23.357 3.9813 23.2685 4.54801C23.0884 5.70055 22.6461 6.90698 21.7139 7.58998C20.6016 8.32965 19.7798 8.51471 18.9009 8.71001C17.7496 8.91995 16.5511 9.24952 15.1609 10.5328L14.5389 11.1069L15.3419 11.3745L15.3446 11.3755C15.6571 11.4796 16.3188 11.7002 17.2 11.7002Z" fill="white" stroke="white"/>
</svg>
