<svg width="19" height="18" viewBox="0 0 19 18" fill="none" xmlns="http://www.w3.org/2000/svg">
<path fill-rule="evenodd" clip-rule="evenodd" d="M5.94507 14.2127H10.3341C10.6437 14.2127 10.8966 14.4647 10.8966 14.7752C10.8966 15.0857 10.6445 15.3377 10.3341 15.3377H5.94653C4.39636 15.3377 3.13403 14.0762 3.13403 12.5252V4.84519L1.46906 6.51017C1.24933 6.72994 0.89447 6.72994 0.674011 6.51017C0.453552 6.29044 0.453552 5.93416 0.674011 5.71517L3.29901 3.09017C3.51801 2.86968 3.87433 2.86968 4.09406 3.09017L6.71906 5.71517C6.93878 5.93416 6.93878 6.29044 6.71906 6.51017C6.60956 6.62044 6.46545 6.67519 6.32153 6.67519C6.17761 6.67519 6.03351 6.62044 5.92255 6.51017L4.25757 4.84519V12.5252C4.25757 13.4552 5.01508 14.2127 5.94507 14.2127ZM17.5325 11.7527C17.7523 11.5329 18.1084 11.5329 18.3274 11.7527C18.548 11.9724 18.548 12.3287 18.3274 12.5477L15.7024 15.1727C15.5922 15.2837 15.4497 15.3377 15.3051 15.3377C15.1602 15.3377 15.0163 15.2829 14.9075 15.1727L12.2825 12.5477C12.0619 12.3287 12.0635 11.9724 12.2825 11.7527C12.5015 11.5329 12.8577 11.5329 13.0774 11.7527L14.7426 13.4177V5.73769C14.7426 4.80765 13.985 4.05017 13.0551 4.05017H8.66748C8.35693 4.05017 8.10498 3.79817 8.10498 3.48767C8.10498 3.17716 8.35693 2.92517 8.66748 2.92517H13.0551C14.6052 2.92517 15.8676 4.18667 15.8676 5.73769V13.4177L17.5325 11.7527Z" fill="#536471"/>
</svg>
