<svg width="25" height="24" viewBox="0 0 25 24" fill="none" xmlns="http://www.w3.org/2000/svg">
<path fill-rule="evenodd" clip-rule="evenodd" d="M18.3686 16.81L22.0282 20.47C22.3212 20.763 22.3212 21.237 22.0262 21.53C21.8813 21.677 21.6863 21.75 21.4963 21.75C21.3063 21.75 21.1133 21.676 20.9663 21.53L17.3067 17.87C15.7388 19.196 13.714 20 11.4992 20C6.52964 20 2.5 15.97 2.5 11C2.5 6.03 6.52964 2 11.4992 2C16.4687 2 20.4984 6.03 20.4984 11C20.4984 13.214 19.6935 15.24 18.3686 16.81ZM11.4992 3.5C7.36456 3.5 3.99986 6.865 3.99986 11C3.99986 15.135 7.36456 18.5 11.4992 18.5C15.6338 18.5 18.9985 15.135 18.9985 11C18.9985 6.865 15.6338 3.5 11.4992 3.5Z" fill="#0F1419"/>
</svg>
