<svg width="18" height="18" viewBox="0 0 18 18" fill="none" xmlns="http://www.w3.org/2000/svg">
<path d="M14.25 10.0802C15.0784 10.0802 15.75 9.43549 15.75 8.6402C15.75 7.84491 15.0784 7.2002 14.25 7.2002C13.4216 7.2002 12.75 7.84491 12.75 8.6402C12.75 9.43549 13.4216 10.0802 14.25 10.0802Z" fill="#B9CAD3"/>
<path d="M9 10.0802C9.82843 10.0802 10.5 9.43549 10.5 8.6402C10.5 7.84491 9.82843 7.2002 9 7.2002C8.17157 7.2002 7.5 7.84491 7.5 8.6402C7.5 9.43549 8.17157 10.0802 9 10.0802Z" fill="#B9CAD3"/>
<path d="M3.75 10.0802C4.57843 10.0802 5.25 9.43549 5.25 8.6402C5.25 7.84491 4.57843 7.2002 3.75 7.2002C2.92157 7.2002 2.25 7.84491 2.25 8.6402C2.25 9.43549 2.92157 10.0802 3.75 10.0802Z" fill="#B9CAD3"/>
</svg>
