<svg width="13" height="14" viewBox="0 0 13 14" fill="none" xmlns="http://www.w3.org/2000/svg">
<path fill-rule="evenodd" clip-rule="evenodd" d="M3.98787 10.5208H6.80454C7.16366 10.5208 7.45345 10.8122 7.45345 11.1708C7.45345 11.5294 7.16312 11.8208 6.80345 11.8208H3.98679C2.80758 11.8208 1.8472 10.861 1.8472 9.68121V4.58791L1.12949 5.30671C0.876536 5.56129 0.464869 5.55966 0.210286 5.30671C-0.0442977 5.05375 -0.0442977 4.64208 0.210286 4.3875L2.03841 2.55829C2.29137 2.30479 2.70304 2.30479 2.95762 2.55829L4.78629 4.38696C5.03979 4.63991 5.03979 5.05158 4.78629 5.30616C4.65845 5.43346 4.49162 5.49683 4.32587 5.49683C4.16012 5.49683 3.99329 5.43346 3.86654 5.30616L3.14829 4.58791V9.68121C3.14829 10.1443 3.52529 10.5208 3.98787 10.5208ZM11.8724 8.88333C12.1252 8.6289 12.5365 8.62875 12.7911 8.88288C13.0452 9.13584 13.0451 9.54741 12.7921 9.802L10.964 11.6307C10.8367 11.7574 10.6715 11.8202 10.5047 11.8202C10.3378 11.8202 10.171 11.7569 10.0442 11.6307L8.21666 9.80254C7.96208 9.54958 7.9637 9.13792 8.21666 8.88333C8.46962 8.62875 8.88129 8.62875 9.13587 8.88333L9.85412 9.60158V4.50829C9.85412 4.04516 9.47712 3.66871 9.01454 3.66871H6.19787C5.83874 3.66871 5.54787 3.37729 5.54787 3.01871C5.54787 2.66012 5.83874 2.36871 6.19787 2.36871H9.01454C10.1943 2.36871 11.1541 3.32854 11.1541 4.50829V9.60158L11.8724 8.88333Z" fill="#536471"/>
</svg>
