<svg width="19" height="18" viewBox="0 0 19 18" fill="none" xmlns="http://www.w3.org/2000/svg">
<path fill-rule="evenodd" clip-rule="evenodd" d="M9.73944 16.2285H9.75006V16.227H9.7583C11.6956 16.1917 17.286 11.1412 17.286 6.35922C17.286 4.06047 15.393 2.04297 13.2331 2.04297C11.5148 2.04297 10.3598 3.22947 9.74933 4.09048C9.13721 3.22796 7.98236 2.04297 6.26483 2.04297C4.1062 2.04297 2.21252 4.06047 2.21252 6.35847C2.21252 11.142 7.80219 16.1925 9.73944 16.2285ZM3.33826 6.35998C3.33826 4.65973 4.70551 3.16872 6.26556 3.16872C8.16309 3.16872 9.22125 5.36997 9.23169 5.39247C9.40509 5.81398 10.0994 5.81398 10.2721 5.39247C10.2811 5.37073 11.34 3.16872 13.236 3.16872C14.7961 3.16872 16.1633 4.65973 16.1633 6.35998C16.1633 10.6657 10.8893 15.057 9.75079 15.1035C8.61371 15.057 3.33826 10.665 3.33826 6.35998Z" fill="#536471"/>
</svg>
