<svg width="18" height="18" viewBox="0 0 18 18" fill="none" xmlns="http://www.w3.org/2000/svg">
<path d="M9.39752 1.85231L13.1475 5.60229C13.3673 5.82206 13.3673 6.17756 13.1475 6.39729C13.038 6.50829 12.8939 6.56231 12.75 6.56231C12.6061 6.56231 12.462 6.50756 12.3525 6.39729L9.5625 3.60731V11.2498C9.5625 11.5603 9.31055 11.8123 9 11.8123C8.68945 11.8123 8.4375 11.5603 8.4375 11.2498V3.60731L5.64752 6.39729C5.4278 6.61779 5.07294 6.61633 4.85248 6.39729C4.63202 6.17829 4.63202 5.82206 4.85248 5.60229L8.60248 1.85231C8.82147 1.63256 9.1778 1.63256 9.39752 1.85231Z" fill="#536471"/>
<path d="M1.5 14.7388C1.5 15.6868 2.27106 16.4578 3.21899 16.4578H14.781C15.7289 16.4578 16.5 15.6868 16.5 14.7388V10.4998C16.5 10.1893 16.248 9.93731 15.9375 9.93731C15.627 9.93731 15.375 10.1893 15.375 10.4998V14.7388C15.375 15.0666 15.1088 15.3328 14.781 15.3328H3.21899C2.89124 15.3328 2.625 15.0666 2.625 14.7388V10.4998C2.625 10.1893 2.37305 9.93731 2.0625 9.93731C1.75195 9.93731 1.5 10.1893 1.5 10.4998V14.7388Z" fill="#536471"/>
</svg>
