<svg width="19" height="18" viewBox="0 0 19 18" fill="none" xmlns="http://www.w3.org/2000/svg">
<path fill-rule="evenodd" clip-rule="evenodd" d="M7.54852 1.67383L10.6595 1.68134C13.9371 1.68134 16.5049 4.24632 16.5095 7.52158V7.53435C16.5073 9.29083 15.6537 11.0608 14.2273 12.2683C13.0161 13.2928 8.35931 16.2718 8.16119 16.3978C8.06744 16.4578 7.96326 16.4863 7.8598 16.4863C7.67377 16.4863 7.49231 16.3948 7.38574 16.2261C7.3288 16.1383 7.29584 16.0048 7.29584 15.9238V13.0528C4.08655 12.9298 1.69702 10.5988 1.69702 7.52533C1.69702 4.24408 4.26654 1.67383 7.54706 1.67383H7.54852ZM8.42084 14.8926C9.85327 13.9641 12.6493 12.1303 13.4998 11.4103C14.6796 10.4113 15.3838 8.96083 15.386 7.52835C15.3845 4.88083 13.3085 2.80634 10.6595 2.80634H10.658L7.54779 2.79883C4.8988 2.79883 2.82275 4.87483 2.82275 7.52533C2.82275 10.0828 4.81622 11.9398 7.56134 11.9398H7.85834C8.16943 11.9398 8.42084 12.1918 8.42084 12.5023V14.8926Z" fill="#536471"/>
</svg>
