<svg width="24" height="24" viewBox="0 0 24 24" fill="none" xmlns="http://www.w3.org/2000/svg">
<path d="M22.772 10.5058L17.154 8.3138L14.994 1.8138C14.892 1.5068 14.604 1.2998 14.282 1.2998C13.96 1.2998 13.672 1.5068 13.57 1.8128L11.41 8.3128L5.79 10.5048C5.503 10.6168 5.313 10.8948 5.313 11.2048C5.313 11.5148 5.503 11.7898 5.791 11.9028L11.411 14.0948L13.571 20.5948C13.673 20.9008 13.961 21.1078 14.283 21.1078C14.605 21.1078 14.893 20.9008 14.995 20.5948L17.155 14.0948L22.775 11.9028C23.062 11.7908 23.252 11.5128 23.252 11.2028C23.252 10.8928 23.062 10.6178 22.774 10.5058H22.772ZM16.282 12.8258C16.074 12.9058 15.912 13.0758 15.842 13.2858L14.282 17.9808L12.722 13.2878C12.652 13.0778 12.492 12.9078 12.284 12.8258L8.129 11.2058L12.283 9.5838C12.491 9.5038 12.653 9.3338 12.723 9.1218L14.283 4.4288L15.843 9.1228C15.913 9.3348 16.073 9.5048 16.281 9.5858L20.436 11.2058L16.281 12.8278L16.282 12.8258ZM6.663 3.8118H4.783V2.0498C4.783 1.6358 4.446 1.2998 4.033 1.2998C3.62 1.2998 3.283 1.6358 3.283 2.0498V3.8118H1.5C1.086 3.8118 0.75 4.1478 0.75 4.5618C0.75 4.9758 1.086 5.3118 1.5 5.3118H3.282V7.0738C3.282 7.4878 3.618 7.8238 4.032 7.8238C4.446 7.8238 4.782 7.4878 4.782 7.0738V5.3118H6.662C7.077 5.3118 7.412 4.9758 7.412 4.5618C7.412 4.1478 7.077 3.8118 6.662 3.8118H6.663ZM9.198 19.4338H8.098V18.4178C8.098 18.0038 7.763 17.6678 7.348 17.6678C6.933 17.6678 6.598 18.0038 6.598 18.4178V19.4338H5.57C5.156 19.4338 4.82 19.7698 4.82 20.1838C4.82 20.5978 5.156 20.9338 5.57 20.9338H6.6V21.9498C6.6 22.3638 6.935 22.6998 7.35 22.6998C7.765 22.6998 8.1 22.3638 8.1 21.9498V20.9338H9.198C9.612 20.9338 9.948 20.5978 9.948 20.1838C9.948 19.7698 9.612 19.4338 9.198 19.4338Z" fill="#0F1419"/>
</svg>
