<svg width="30" height="31" viewBox="0 0 30 31" fill="none" xmlns="http://www.w3.org/2000/svg">
<path d="M30.0001 6.41478C28.9429 6.86595 27.8071 7.17079 26.6131 7.30857C27.8311 6.60622 28.7656 5.49173 29.2062 4.16507C28.0667 4.81621 26.8043 5.28932 25.4608 5.54294C24.3846 4.44064 22.8525 3.75049 21.1558 3.75049C17.8992 3.75049 15.2579 6.29407 15.2579 9.43269C15.2579 9.87654 15.3111 10.3082 15.4099 10.7252C10.5059 10.4874 6.16165 8.22553 3.25196 4.78938C2.74549 5.63074 2.45426 6.60622 2.45426 7.64512C2.45426 9.6156 3.49633 11.3556 5.0778 12.3738C4.11043 12.3433 3.20131 12.0885 2.40615 11.6629V11.7361C2.40615 14.4882 4.43838 16.7842 7.13788 17.3061C6.64154 17.4353 6.12114 17.5036 5.58427 17.5036C5.20442 17.5036 4.83343 17.4695 4.47383 17.4036C5.22468 19.6594 7.40252 21.3031 9.98427 21.347C7.9647 22.8712 5.42094 23.7797 2.65812 23.7797C2.18203 23.7797 1.71228 23.7528 1.25012 23.7004C3.861 25.3136 6.96062 26.2525 10.2907 26.2525C21.1419 26.2525 27.074 17.5975 27.074 10.0911C27.074 9.84728 27.0676 9.60097 27.0562 9.35709C28.2085 8.55476 29.2088 7.5561 29.9976 6.41844L30.0001 6.41478Z" fill="#1D9BF0"/>
</svg>
