<svg width="18" height="18" viewBox="0 0 18 18" fill="none" xmlns="http://www.w3.org/2000/svg">
<path fill-rule="evenodd" clip-rule="evenodd" d="M15.96 6.41667C17.0208 6.95833 17.75 8.1 17.75 9.41667V9.4175C17.75 10.6625 17.0958 11.7483 16.1308 12.3208C16.1483 12.4617 16.1583 12.6033 16.1583 12.7483C16.1583 14.59 14.735 16.0817 12.9766 16.0817C12.5841 16.0817 12.2091 16.0108 11.8633 15.875C11.3475 16.9867 10.2591 17.75 8.99915 17.75C7.73998 17.75 6.65165 16.9867 6.13498 15.875C5.78915 16.0117 5.41415 16.0833 5.02248 16.0833C3.26415 16.0833 1.84081 14.5917 1.84081 12.75C1.84081 12.605 1.85081 12.4633 1.86748 12.3217C0.900812 11.7483 0.249146 10.6625 0.249146 9.41667C0.249146 8.09833 0.978312 6.95833 2.03831 6.41667C1.90998 6.05333 1.84081 5.66167 1.84081 5.25C1.84081 3.40833 3.26415 1.91667 5.02248 1.91667C5.41415 1.91667 5.78998 1.9875 6.13581 2.125C6.65331 1.01417 7.74165 0.25 8.99998 0.25C10.2583 0.25 11.3483 1.0125 11.8633 2.12667C12.21 1.98833 12.585 1.91833 12.9766 1.91833C14.7333 1.91833 16.1583 3.40833 16.1583 5.25C16.1583 5.6625 16.0883 6.05417 15.96 6.41667ZM8.62498 12.055L12.2366 6.63833C12.4283 6.35167 12.35 5.9625 12.0616 5.77083C11.775 5.58 11.3866 5.65583 11.195 5.94333L8.00748 10.7267L6.53248 9.25417C6.28915 9.00917 5.89331 9.01083 5.64915 9.25417C5.40498 9.4975 5.40498 9.89333 5.64915 10.1375L7.66165 12.15L7.75748 12.2283C7.86415 12.3 7.98498 12.3333 8.10415 12.3333C8.30665 12.3333 8.50415 12.2358 8.62498 12.055Z" fill="#1D9BF0"/>
</svg>
